<?xml version="1.0" encoding="utf-8"?><svg viewBox="0 0 28 28" xmlns="http://www.w3.org/2000/svg" xmlns:xlink="http://www.w3.org/1999/xlink"><style>:root>svg{display:none}:root>svg:target{display:block}</style><svg viewBox="0 0 28 28" id="close" xmlns="http://www.w3.org/2000/svg"><g filter="url(#aa)"><circle cx="14" cy="10" r="10"/><path d="M10.207 5.5l8.485 8.485-.707.707L9.5 6.207z"/><path d="M9.59 13.985L18.077 5.5l.707.707-8.485 8.486z"/></g><defs><filter id="aa" x="0" y="0" width="28" height="28" filterUnits="userSpaceOnUse" color-interpolation-filters="sRGB"><feFlood flood-opacity="0" result="BackgroundImageFix"/><feColorMatrix in="SourceAlpha" values="0 0 0 0 0 0 0 0 0 0 0 0 0 0 0 0 0 0 127 0" result="hardAlpha"/><feOffset dy="4"/><feGaussianBlur stdDeviation="2"/><feComposite in2="hardAlpha" operator="out"/><feColorMatrix values="0 0 0 0 0 0 0 0 0 0 0 0 0 0 0 0 0 0 0.25 0"/><feBlend in2="BackgroundImageFix" result="effect1_dropShadow_41399_312"/><feBlend in="SourceGraphic" in2="effect1_dropShadow_41399_312" result="shape"/></filter></defs></svg><svg viewBox="0 0 22 22" id="tel" xmlns="http://www.w3.org/2000/svg"><path d="M18.343 14.098a10.49 10.49 0 01-3.236-.513.896.896 0 00-.926.22l-1.44 1.806c-2.593-1.238-5.023-3.575-6.315-6.261l1.787-1.522a.935.935 0 00.22-.935 10.223 10.223 0 01-.513-3.235.916.916 0 00-.907-.908H3.84c-.495 0-1.091.22-1.091.908 0 8.515 7.086 15.592 15.593 15.592.65 0 .907-.578.907-1.082v-3.162a.916.916 0 00-.907-.908z"/></svg></svg>